<svg width="40" height="40" viewBox="0 0 40 40" fill="none" xmlns="http://www.w3.org/2000/svg">
<path d="M20 8.75C17.775 8.75 15.5999 9.4098 13.7498 10.646C11.8998 11.8821 10.4578 13.6391 9.60636 15.6948C8.75487 17.7505 8.53208 20.0125 8.96617 22.1948C9.40025 24.3771 10.4717 26.3816 12.045 27.955C13.6184 29.5283 15.6229 30.5998 17.8052 31.0338C19.9875 31.4679 22.2495 31.2451 24.3052 30.3936C26.3609 29.5422 28.1179 28.1002 29.354 26.2502C30.5902 24.4001 31.25 22.225 31.25 20C31.25 17.0163 30.0647 14.1548 27.955 12.045C25.8452 9.93526 22.9837 8.75 20 8.75ZM20 33.125C19.8342 33.125 19.6753 33.1908 19.5581 33.3081C19.4408 33.4253 19.375 33.5842 19.375 33.75V38.125C19.375 38.2908 19.4408 38.4497 19.5581 38.5669C19.6753 38.6842 19.8342 38.75 20 38.75C20.1658 38.75 20.3247 38.6842 20.4419 38.5669C20.5592 38.4497 20.625 38.2908 20.625 38.125V33.75C20.625 33.5842 20.5592 33.4253 20.4419 33.3081C20.3247 33.1908 20.1658 33.125 20 33.125ZM20 6.875C20.1658 6.875 20.3247 6.80915 20.4419 6.69194C20.5592 6.57473 20.625 6.41576 20.625 6.25V1.875C20.625 1.70924 20.5592 1.55027 20.4419 1.43306C20.3247 1.31585 20.1658 1.25 20 1.25C19.8342 1.25 19.6753 1.31585 19.5581 1.43306C19.4408 1.55027 19.375 1.70924 19.375 1.875V6.25C19.375 6.41576 19.4408 6.57473 19.5581 6.69194C19.6753 6.80915 19.8342 6.875 20 6.875ZM30.1625 29.2812C30.0429 29.1789 29.8891 29.1254 29.7318 29.1314C29.5745 29.1375 29.4253 29.2027 29.314 29.314C29.2027 29.4253 29.1375 29.5745 29.1314 29.7318C29.1254 29.8891 29.1789 30.0429 29.2812 30.1625L32.375 33.2562C32.4946 33.3586 32.6484 33.4121 32.8057 33.4061C32.963 33.4 33.1122 33.3348 33.2235 33.2235C33.3348 33.1122 33.4 32.963 33.4061 32.8057C33.4121 32.6484 33.3586 32.4946 33.2562 32.375L30.1625 29.2812ZM9.8375 10.7188C9.95706 10.8211 10.1109 10.8746 10.2682 10.8686C10.4255 10.8625 10.5747 10.7973 10.686 10.686C10.7973 10.5747 10.8625 10.4255 10.8686 10.2682C10.8746 10.1109 10.8211 9.95706 10.7188 9.8375L7.625 6.74375C7.50544 6.64136 7.35164 6.58785 7.19434 6.59393C7.03704 6.60001 6.88783 6.66521 6.77652 6.77652C6.66521 6.88783 6.60001 7.03704 6.59393 7.19434C6.58785 7.35164 6.64136 7.50544 6.74375 7.625L9.8375 10.7188ZM38.125 19.375H33.75C33.5842 19.375 33.4253 19.4408 33.3081 19.5581C33.1908 19.6753 33.125 19.8342 33.125 20C33.125 20.1658 33.1908 20.3247 33.3081 20.4419C33.4253 20.5592 33.5842 20.625 33.75 20.625H38.125C38.2908 20.625 38.4497 20.5592 38.5669 20.4419C38.6842 20.3247 38.75 20.1658 38.75 20C38.75 19.8342 38.6842 19.6753 38.5669 19.5581C38.4497 19.4408 38.2908 19.375 38.125 19.375ZM6.875 20C6.875 19.8342 6.80915 19.6753 6.69194 19.5581C6.57473 19.4408 6.41576 19.375 6.25 19.375H1.875C1.70924 19.375 1.55027 19.4408 1.43306 19.5581C1.31585 19.6753 1.25 19.8342 1.25 20C1.25 20.1658 1.31585 20.3247 1.43306 20.4419C1.55027 20.5592 1.70924 20.625 1.875 20.625H6.25C6.41576 20.625 6.57473 20.5592 6.69194 20.4419C6.80915 20.3247 6.875 20.1658 6.875 20ZM29.725 10.9C29.8073 10.9005 29.8888 10.8847 29.9649 10.8536C30.0411 10.8225 30.1103 10.7767 30.1688 10.7188L33.2625 7.625C33.3649 7.50544 33.4184 7.35164 33.4123 7.19434C33.4062 7.03704 33.341 6.88783 33.2297 6.77652C33.1184 6.66521 32.9692 6.60001 32.8119 6.59393C32.6546 6.58785 32.5008 6.64136 32.3813 6.74375L29.2875 9.8375C29.1994 9.92492 29.1392 10.0366 29.1148 10.1583C29.0904 10.28 29.1028 10.4063 29.1504 10.5209C29.198 10.6356 29.2787 10.7335 29.3821 10.8021C29.4856 10.8707 29.6071 10.907 29.7313 10.9062L29.725 10.9ZM9.8375 29.2812L6.74375 32.375C6.67832 32.431 6.62519 32.5 6.58767 32.5775C6.55016 32.6551 6.52908 32.7395 6.52575 32.8256C6.52243 32.9117 6.53693 32.9975 6.56835 33.0777C6.59977 33.1579 6.64743 33.2307 6.70834 33.2917C6.76925 33.3526 6.84209 33.4002 6.9223 33.4316C7.0025 33.4631 7.08833 33.4776 7.17441 33.4743C7.26048 33.4709 7.34494 33.4498 7.42248 33.4123C7.50002 33.3748 7.56897 33.3217 7.625 33.2562L10.7188 30.1625C10.8211 30.0429 10.8746 29.8891 10.8686 29.7318C10.8625 29.5745 10.7973 29.4253 10.686 29.314C10.5747 29.2027 10.4255 29.1375 10.2682 29.1314C10.1109 29.1254 9.95706 29.1789 9.8375 29.2812Z" fill="white"/>
</svg>
